+ filenameToUse=/home/horvathandras/vatic/vatic/public/videouploads/DJI_0048_regi_turas_friss_turas_belviz_kereknyom_homokmegy_homokmegy_20180331_napos_kalaszos_T1.avi
+ filenameNoDot=DJI_0048_regi_turas_friss_turas_belviz_kereknyom_homokmegy_homokmegy_20180331_napos_kalaszos_T1
+ FullUploadPath=/home/horvathandras/vatic/vatic/public/videouploads/DJI_0048_regi_turas_friss_turas_belviz_kereknyom_homokmegy_homokmegy_20180331_napos_kalaszos_T1.avi
+ VideoDataDir=/home/horvathandras/vatic/vatic/videos
+ AvailableObjectTypes='PozitívROI NegatívROI Túrás ~Friss ~1-2Hetes ~Régebbi ~Egyéb1 ~Egyéb2 ~Egyéb3 Rágás ~Friss ~1-2Hetes ~Régebbi ~Egyéb1 ~Egyéb2 ~Egyéb3 Törés ~Friss ~1-2Hetes ~Régebbi ~Egyéb1 ~Egyéb2 ~Egyéb3 Taposás ~Friss ~1-2Hetes ~Régebbi ~Egyéb1 ~Egyéb2 ~Egyéb3 EgészségesNövény Egyéb1 Egyéb2 Egyéb3 Egyéb4 Egyéb5 Bizonytalan Művelőút Gktaposás Vetőhiba Széldöntés Jégkár Belvíz Aszály Erózió EgyszikűGyom KétszikűGyom EgyébNövvédelmiPR'
++ dirname /home/horvathandras/vatic/vatic/vatic_publisher.sh
+ cd /home/horvathandras/vatic/vatic
+ touch /home/horvathandras/vatic/vatic/public/videouploads/DJI_0048_regi_turas_friss_turas_belviz_kereknyom_homokmegy_homokmegy_20180331_napos_kalaszos_T1.avi
+ chmod 744 /home/horvathandras/vatic/vatic/public/videouploads/DJI_0048_regi_turas_friss_turas_belviz_kereknyom_homokmegy_homokmegy_20180331_napos_kalaszos_T1.avi
+ mkdir /home/horvathandras/vatic/vatic/videos/DJI_0048_regi_turas_friss_turas_belviz_kereknyom_homokmegy_homokmegy_20180331_napos_kalaszos_T1
+ turkic extract /home/horvathandras/vatic/vatic/public/videouploads/DJI_0048_regi_turas_friss_turas_belviz_kereknyom_homokmegy_homokmegy_20180331_napos_kalaszos_T1.avi /home/horvathandras/vatic/vatic/videos/DJI_0048_regi_turas_friss_turas_belviz_kereknyom_homokmegy_homokmegy_20180331_napos_kalaszos_T1 --no-resize
ffmpeg version 2.8.14-0ubuntu0.16.04.1 Copyright (c) 2000-2018 the FFmpeg developers
  built with gcc 5.4.0 (Ubuntu 5.4.0-6ubuntu1~16.04.9) 20160609
  configuration: --prefix=/usr --extra-version=0ubuntu0.16.04.1 --build-suffix=-ffmpeg --toolchain=hardened --libdir=/usr/lib/x86_64-linux-gnu --incdir=/usr/include/x86_64-linux-gnu --cc=cc --cxx=g++ --enable-gpl --enable-shared --disable-stripping --disable-decoder=libopenjpeg --disable-decoder=libschroedinger --enable-avresample --enable-avisynth --enable-gnutls --enable-ladspa --enable-libass --enable-libbluray --enable-libbs2b --enable-libcaca --enable-libcdio --enable-libflite --enable-libfontconfig --enable-libfreetype --enable-libfribidi --enable-libgme --enable-libgsm --enable-libmodplug --enable-libmp3lame --enable-libopenjpeg --enable-libopus --enable-libpulse --enable-librtmp --enable-libschroedinger --enable-libshine --enable-libsnappy --enable-libsoxr --enable-libspeex --enable-libssh --enable-libtheora --enable-libtwolame --enable-libvorbis --enable-libvpx --enable-libwavpack --enable-libwebp --enable-libx265 --enable-libxvid --enable-libzvbi --enable-openal --enable-opengl --enable-x11grab --enable-libdc1394 --enable-libiec61883 --enable-libzmq --enable-frei0r --enable-libx264 --enable-libopencv
  libavutil      54. 31.100 / 54. 31.100
  libavcodec     56. 60.100 / 56. 60.100
  libavformat    56. 40.101 / 56. 40.101
  libavdevice    56.  4.100 / 56.  4.100
  libavfilter     5. 40.101 /  5. 40.101
  libavresample   2.  1.  0 /  2.  1.  0
  libswscale      3.  1.101 /  3.  1.101
  libswresample   1.  2.101 /  1.  2.101
  libpostproc    53.  3.100 / 53.  3.100
Input #0, mov,mp4,m4a,3gp,3g2,mj2, from '/home/horvathandras/vatic/vatic/public/videouploads/DJI_0048_regi_turas_friss_turas_belviz_kereknyom_homokmegy_homokmegy_20180331_napos_kalaszos_T1.avi':
  Metadata:
    major_brand     : qt  
    minor_version   : 537986816
    compatible_brands: qt  
    creation_time   : 2018-03-31 10:46:34
    location        : +46.517177+19.171144+32.100
    location-{    : +46.517177+19.171144+32.100
    comment         : DE=None, Mode=P, DSW=0001
  Duration: 00:00:39.97, start: 0.000000, bitrate: 100314 kb/s
    Stream #0:0(eng): Video: h264 (High) (avc1 / 0x31637661), yuv420p(tv, bt709), 3840x2160 [SAR 1:1 DAR 16:9], 100220 kb/s, 29.97 fps, 29.97 tbr, 30k tbn, 59.94 tbc (default)
    Metadata:
      creation_time   : 2018-03-31 10:46:34
      handler_name    : DJI.AVC
      encoder         : AVC encoder
    Stream #0:1(eng): Data: none (priv / 0x76697270), 89 kb/s
    Metadata:
      creation_time   : 2018-03-31 10:46:34
      handler_name    : DJI.Meta
Please use -b:a or -b:v, -b is ambiguous
[swscaler @ 0x1c73cc0] deprecated pixel format used, make sure you did set range correctly
Output #0, image2, to '/tmp/pyvision-ffmpeg-157551103/%d.jpg':
  Metadata:
    major_brand     : qt  
    minor_version   : 537986816
    compatible_brands: qt  
    comment         : DE=None, Mode=P, DSW=0001
    location        : +46.517177+19.171144+32.100
    location-{    : +46.517177+19.171144+32.100
    encoder         : Lavf56.40.101
    Stream #0:0(eng): Video: mjpeg, yuvj420p(pc), 3840x2160 [SAR 1:1 DAR 16:9], q=2-31, 10000 kb/s, 29.97 fps, 29.97 tbn, 29.97 tbc (default)
    Metadata:
      creation_time   : 2018-03-31 10:46:34
      handler_name    : DJI.AVC
      encoder         : Lavc56.60.100 mjpeg
Stream mapping:
  Stream #0:0 -> #0:0 (h264 (native) -> mjpeg (native))
Press [q] to stop, [?] for help
frame=    1 fps=0.0 q=16.7 size=N/A time=00:00:00.03 bitrate=N/A    frame=    5 fps=4.0 q=24.8 size=N/A time=00:00:00.16 bitrate=N/A    frame=   10 fps=5.4 q=24.8 size=N/A time=00:00:00.33 bitrate=N/A    frame=   15 fps=6.1 q=24.8 size=N/A time=00:00:00.50 bitrate=N/A    frame=   20 fps=6.6 q=24.8 size=N/A time=00:00:00.66 bitrate=N/A    frame=   25 fps=6.9 q=24.8 size=N/A time=00:00:00.83 bitrate=N/A    frame=   30 fps=7.1 q=24.8 size=N/A time=00:00:01.00 bitrate=N/A    frame=   33 fps=6.9 q=24.8 size=N/A time=00:00:01.10 bitrate=N/A    frame=   38 fps=7.1 q=24.8 size=N/A time=00:00:01.26 bitrate=N/A    frame=   43 fps=7.2 q=24.8 size=N/A time=00:00:01.43 bitrate=N/A    frame=   48 fps=7.3 q=24.8 size=N/A time=00:00:01.60 bitrate=N/A    frame=   53 fps=7.4 q=24.8 size=N/A time=00:00:01.76 bitrate=N/A    frame=   58 fps=7.5 q=24.8 size=N/A time=00:00:01.93 bitrate=N/A    frame=   62 fps=7.5 q=24.8 size=N/A time=00:00:02.06 bitrate=N/A    frame=   67 fps=7.5 q=24.8 size=N/A time=00:00:02.23 bitrate=N/A    frame=   72 fps=7.6 q=24.8 size=N/A time=00:00:02.40 bitrate=N/A    frame=   77 fps=7.6 q=24.8 size=N/A time=00:00:02.56 bitrate=N/A    frame=   82 fps=7.7 q=24.8 size=N/A time=00:00:02.73 bitrate=N/A    frame=   87 fps=7.7 q=24.8 size=N/A time=00:00:02.90 bitrate=N/A    frame=   91 fps=7.7 q=24.8 size=N/A time=00:00:03.03 bitrate=N/A    frame=   96 fps=7.7 q=24.8 size=N/A time=00:00:03.20 bitrate=N/A    frame=  101 fps=7.8 q=24.8 size=N/A time=00:00:03.37 bitrate=N/A    frame=  106 fps=7.8 q=24.8 size=N/A time=00:00:03.53 bitrate=N/A    frame=  111 fps=7.8 q=24.8 size=N/A time=00:00:03.70 bitrate=N/A    frame=  116 fps=7.8 q=24.8 size=N/A time=00:00:03.87 bitrate=N/A    frame=  120 fps=7.8 q=24.8 size=N/A time=00:00:04.00 bitrate=N/A    frame=  125 fps=7.8 q=24.8 size=N/A time=00:00:04.17 bitrate=N/A    frame=  130 fps=7.9 q=24.8 size=N/A time=00:00:04.33 bitrate=N/A    frame=  135 fps=7.9 q=24.8 size=N/A time=00:00:04.50 bitrate=N/A    frame=  140 fps=7.9 q=24.8 size=N/A time=00:00:04.67 bitrate=N/A    frame=  145 fps=7.9 q=24.8 size=N/A time=00:00:04.83 bitrate=N/A    frame=  150 fps=7.9 q=24.8 size=N/A time=00:00:05.00 bitrate=N/A    frame=  153 fps=7.9 q=24.8 size=N/A time=00:00:05.10 bitrate=N/A    frame=  158 fps=7.9 q=24.8 size=N/A time=00:00:05.27 bitrate=N/A    frame=  163 fps=7.9 q=24.8 size=N/A time=00:00:05.43 bitrate=N/A    frame=  168 fps=7.9 q=24.8 size=N/A time=00:00:05.60 bitrate=N/A    frame=  173 fps=7.9 q=24.8 size=N/A time=00:00:05.77 bitrate=N/A    frame=  178 fps=8.0 q=24.8 size=N/A time=00:00:05.93 bitrate=N/A    frame=  182 fps=7.9 q=24.8 size=N/A time=00:00:06.07 bitrate=N/A    frame=  187 fps=7.9 q=24.8 size=N/A time=00:00:06.23 bitrate=N/A    frame=  192 fps=8.0 q=24.8 size=N/A time=00:00:06.40 bitrate=N/A    frame=  197 fps=8.0 q=24.8 size=N/A time=00:00:06.57 bitrate=N/A    frame=  202 fps=8.0 q=24.8 size=N/A time=00:00:06.74 bitrate=N/A    frame=  207 fps=8.0 q=24.8 size=N/A time=00:00:06.90 bitrate=N/A    frame=  211 fps=8.0 q=24.8 size=N/A time=00:00:07.04 bitrate=N/A    frame=  216 fps=8.0 q=24.8 size=N/A time=00:00:07.20 bitrate=N/A    frame=  221 fps=8.0 q=24.8 size=N/A time=00:00:07.37 bitrate=N/A    frame=  226 fps=8.0 q=24.8 size=N/A time=00:00:07.54 bitrate=N/A    frame=  231 fps=8.0 q=24.8 size=N/A time=00:00:07.70 bitrate=N/A    frame=  236 fps=8.0 q=24.8 size=N/A time=00:00:07.87 bitrate=N/A    frame=  241 fps=8.0 q=24.8 size=N/A time=00:00:08.04 bitrate=N/A    frame=  246 fps=8.0 q=24.8 size=N/A time=00:00:08.20 bitrate=N/A    frame=  251 fps=8.1 q=24.8 size=N/A time=00:00:08.37 bitrate=N/A    frame=  256 fps=8.1 q=24.8 size=N/A time=00:00:08.54 bitrate=N/A    frame=  261 fps=8.1 q=24.8 size=N/A time=00:00:08.70 bitrate=N/A    frame=  266 fps=8.1 q=24.8 size=N/A time=00:00:08.87 bitrate=N/A    frame=  270 fps=8.1 q=24.8 size=N/A time=00:00:09.00 bitrate=N/A    frame=  275 fps=8.1 q=24.8 size=N/A time=00:00:09.17 bitrate=N/A    frame=  280 fps=8.1 q=24.8 size=N/A time=00:00:09.34 bitrate=N/A    frame=  285 fps=8.1 q=24.8 size=N/A time=00:00:09.50 bitrate=N/A    frame=  290 fps=8.1 q=24.8 size=N/A time=00:00:09.67 bitrate=N/A    frame=  295 fps=8.1 q=24.8 size=N/A time=00:00:09.84 bitrate=N/A    frame=  300 fps=8.1 q=24.8 size=N/A time=00:00:10.01 bitrate=N/A    frame=  305 fps=8.1 q=24.8 size=N/A time=00:00:10.17 bitrate=N/A    frame=  310 fps=8.1 q=24.8 size=N/A time=00:00:10.34 bitrate=N/A    frame=  315 fps=8.1 q=24.8 size=N/A time=00:00:10.51 bitrate=N/A    frame=  320 fps=8.1 q=24.8 size=N/A time=00:00:10.67 bitrate=N/A    frame=  325 fps=8.1 q=24.8 size=N/A time=00:00:10.84 bitrate=N/A    frame=  330 fps=8.1 q=24.8 size=N/A time=00:00:11.01 bitrate=N/A    frame=  334 fps=8.1 q=24.8 size=N/A time=00:00:11.14 bitrate=N/A    frame=  339 fps=8.1 q=24.8 size=N/A time=00:00:11.31 bitrate=N/A    frame=  344 fps=8.1 q=24.8 size=N/A time=00:00:11.47 bitrate=N/A    frame=  349 fps=8.1 q=24.8 size=N/A time=00:00:11.64 bitrate=N/A    frame=  354 fps=8.1 q=24.8 size=N/A time=00:00:11.81 bitrate=N/A    frame=  359 fps=8.1 q=24.8 size=N/A time=00:00:11.97 bitrate=N/A    frame=  363 fps=8.1 q=24.8 size=N/A time=00:00:12.11 bitrate=N/A    frame=  368 fps=8.1 q=24.8 size=N/A time=00:00:12.27 bitrate=N/A    frame=  373 fps=8.1 q=24.8 size=N/A time=00:00:12.44 bitrate=N/A    frame=  378 fps=8.1 q=24.8 size=N/A time=00:00:12.61 bitrate=N/A    frame=  383 fps=8.1 q=24.8 size=N/A time=00:00:12.77 bitrate=N/A    frame=  388 fps=8.1 q=24.8 size=N/A time=00:00:12.94 bitrate=N/A    frame=  392 fps=8.1 q=24.8 size=N/A time=00:00:13.07 bitrate=N/A    frame=  397 fps=8.1 q=24.8 size=N/A time=00:00:13.24 bitrate=N/A    frame=  402 fps=8.1 q=24.8 size=N/A time=00:00:13.41 bitrate=N/A    frame=  407 fps=8.1 q=24.8 size=N/A time=00:00:13.58 bitrate=N/A    frame=  412 fps=8.1 q=24.8 size=N/A time=00:00:13.74 bitrate=N/A    frame=  417 fps=8.1 q=24.8 size=N/A time=00:00:13.91 bitrate=N/A    frame=  421 fps=8.1 q=24.8 size=N/A time=00:00:14.04 bitrate=N/A    frame=  426 fps=8.1 q=24.8 size=N/A time=00:00:14.21 bitrate=N/A    frame=  431 fps=8.1 q=24.8 size=N/A time=00:00:14.38 bitrate=N/A    frame=  436 fps=8.1 q=24.8 size=N/A time=00:00:14.54 bitrate=N/A    frame=  441 fps=8.1 q=24.8 size=N/A time=00:00:14.71 bitrate=N/A    frame=  446 fps=8.1 q=24.8 size=N/A time=00:00:14.88 bitrate=N/A    frame=  450 fps=8.1 q=24.8 size=N/A time=00:00:15.01 bitrate=N/A    frame=  455 fps=8.1 q=24.8 size=N/A time=00:00:15.18 bitrate=N/A    frame=  460 fps=8.1 q=24.8 size=N/A time=00:00:15.34 bitrate=N/A    frame=  465 fps=8.1 q=24.8 size=N/A time=00:00:15.51 bitrate=N/A    frame=  470 fps=8.1 q=24.8 size=N/A time=00:00:15.68 bitrate=N/A    frame=  475 fps=8.1 q=24.8 size=N/A time=00:00:15.84 bitrate=N/A    frame=  479 fps=8.1 q=24.8 size=N/A time=00:00:15.98 bitrate=N/A    frame=  484 fps=8.1 q=24.8 size=N/A time=00:00:16.14 bitrate=N/A    frame=  489 fps=8.1 q=24.8 size=N/A time=00:00:16.31 bitrate=N/A    frame=  494 fps=8.1 q=24.8 size=N/A time=00:00:16.48 bitrate=N/A    frame=  499 fps=8.1 q=24.8 size=N/A time=00:00:16.64 bitrate=N/A    frame=  504 fps=8.1 q=24.8 size=N/A time=00:00:16.81 bitrate=N/A    frame=  509 fps=8.1 q=24.8 size=N/A time=00:00:16.98 bitrate=N/A    frame=  513 fps=8.1 q=24.8 size=N/A time=00:00:17.11 bitrate=N/A    frame=  518 fps=8.1 q=24.8 size=N/A time=00:00:17.28 bitrate=N/A    frame=  523 fps=8.1 q=24.8 size=N/A time=00:00:17.45 bitrate=N/A    frame=  528 fps=8.1 q=24.8 size=N/A time=00:00:17.61 bitrate=N/A    frame=  533 fps=8.1 q=24.8 size=N/A time=00:00:17.78 bitrate=N/A    frame=  538 fps=8.1 q=24.8 size=N/A time=00:00:17.95 bitrate=N/A    frame=  542 fps=8.1 q=24.8 size=N/A time=00:00:18.08 bitrate=N/A    frame=  547 fps=8.1 q=24.8 size=N/A time=00:00:18.25 bitrate=N/A    frame=  552 fps=8.1 q=24.8 size=N/A time=00:00:18.41 bitrate=N/A    frame=  557 fps=8.1 q=24.8 size=N/A time=00:00:18.58 bitrate=N/A    frame=  562 fps=8.1 q=24.8 size=N/A time=00:00:18.75 bitrate=N/A    frame=  567 fps=8.1 q=24.8 size=N/A time=00:00:18.91 bitrate=N/A    frame=  571 fps=8.1 q=24.8 size=N/A time=00:00:19.05 bitrate=N/A    frame=  576 fps=8.1 q=24.8 size=N/A time=00:00:19.21 bitrate=N/A    frame=  581 fps=8.1 q=24.8 size=N/A time=00:00:19.38 bitrate=N/A    frame=  586 fps=8.1 q=24.8 size=N/A time=00:00:19.55 bitrate=N/A    frame=  591 fps=8.1 q=24.8 size=N/A time=00:00:19.71 bitrate=N/A    frame=  596 fps=8.1 q=24.8 size=N/A time=00:00:19.88 bitrate=N/A    frame=  601 fps=8.1 q=24.8 size=N/A time=00:00:20.05 bitrate=N/A    frame=  606 fps=8.1 q=24.8 size=N/A time=00:00:20.22 bitrate=N/A    frame=  611 fps=8.1 q=24.8 size=N/A time=00:00:20.38 bitrate=N/A    frame=  616 fps=8.1 q=24.8 size=N/A time=00:00:20.55 bitrate=N/A    frame=  621 fps=8.1 q=24.8 size=N/A time=00:00:20.72 bitrate=N/A    frame=  626 fps=8.1 q=24.8 size=N/A time=00:00:20.88 bitrate=N/A    frame=  630 fps=8.1 q=24.8 size=N/A time=00:00:21.02 bitrate=N/A    frame=  634 fps=8.1 q=24.8 size=N/A time=00:00:21.15 bitrate=N/A    frame=  639 fps=8.1 q=24.8 size=N/A time=00:00:21.32 bitrate=N/A    frame=  644 fps=8.1 q=24.8 size=N/A time=00:00:21.48 bitrate=N/A    frame=  649 fps=8.1 q=24.8 size=N/A time=00:00:21.65 bitrate=N/A    frame=  654 fps=8.1 q=24.8 size=N/A time=00:00:21.82 bitrate=N/A    frame=  659 fps=8.1 q=24.8 size=N/A time=00:00:21.98 bitrate=N/A    frame=  663 fps=8.1 q=24.8 size=N/A time=00:00:22.12 bitrate=N/A    frame=  668 fps=8.1 q=24.8 size=N/A time=00:00:22.28 bitrate=N/A    frame=  673 fps=8.1 q=24.8 size=N/A time=00:00:22.45 bitrate=N/A    frame=  678 fps=8.1 q=24.8 size=N/A time=00:00:22.62 bitrate=N/A    frame=  683 fps=8.1 q=24.8 size=N/A time=00:00:22.78 bitrate=N/A    frame=  688 fps=8.1 q=24.8 size=N/A time=00:00:22.95 bitrate=N/A    frame=  692 fps=8.1 q=24.8 size=N/A time=00:00:23.08 bitrate=N/A    frame=  697 fps=8.1 q=24.8 size=N/A time=00:00:23.25 bitrate=N/A    frame=  702 fps=8.1 q=24.8 size=N/A time=00:00:23.42 bitrate=N/A    frame=  706 fps=8.1 q=24.8 size=N/A time=00:00:23.55 bitrate=N/A    frame=  711 fps=8.1 q=24.8 size=N/A time=00:00:23.72 bitrate=N/A    frame=  716 fps=8.1 q=24.8 size=N/A time=00:00:23.89 bitrate=N/A    frame=  721 fps=8.1 q=24.8 size=N/A time=00:00:24.05 bitrate=N/A    frame=  726 fps=8.1 q=24.8 size=N/A time=00:00:24.22 bitrate=N/A    frame=  730 fps=8.1 q=24.8 size=N/A time=00:00:24.35 bitrate=N/A    frame=  734 fps=8.1 q=24.8 size=N/A time=00:00:24.49 bitrate=N/A    frame=  738 fps=8.1 q=24.8 size=N/A time=00:00:24.62 bitrate=N/A    frame=  742 fps=8.1 q=24.8 size=N/A time=00:00:24.75 bitrate=N/A    frame=  746 fps=8.1 q=24.8 size=N/A time=00:00:24.89 bitrate=N/A    frame=  750 fps=8.0 q=24.8 size=N/A time=00:00:25.02 bitrate=N/A    frame=  754 fps=8.0 q=24.8 size=N/A time=00:00:25.15 bitrate=N/A    frame=  758 fps=8.0 q=24.8 size=N/A time=00:00:25.29 bitrate=N/A    frame=  762 fps=8.0 q=24.8 size=N/A time=00:00:25.42 bitrate=N/A    frame=  766 fps=8.0 q=24.8 size=N/A time=00:00:25.55 bitrate=N/A    frame=  769 fps=8.0 q=24.8 size=N/A time=00:00:25.65 bitrate=N/A    frame=  773 fps=8.0 q=24.8 size=N/A time=00:00:25.79 bitrate=N/A    frame=  777 fps=8.0 q=24.8 size=N/A time=00:00:25.92 bitrate=N/A    frame=  781 fps=8.0 q=24.8 size=N/A time=00:00:26.05 bitrate=N/A    frame=  786 fps=8.0 q=24.8 size=N/A time=00:00:26.22 bitrate=N/A    frame=  791 fps=8.0 q=24.8 size=N/A time=00:00:26.39 bitrate=N/A    frame=  796 fps=8.0 q=24.8 size=N/A time=00:00:26.55 bitrate=N/A    frame=  800 fps=8.0 q=24.8 size=N/A time=00:00:26.69 bitrate=N/A    frame=  805 fps=8.0 q=24.8 size=N/A time=00:00:26.86 bitrate=N/A    frame=  810 fps=8.0 q=24.8 size=N/A time=00:00:27.02 bitrate=N/A    frame=  815 fps=8.0 q=24.8 size=N/A time=00:00:27.19 bitrate=N/A    frame=  820 fps=8.0 q=24.8 size=N/A time=00:00:27.36 bitrate=N/A    frame=  825 fps=8.0 q=24.8 size=N/A time=00:00:27.52 bitrate=N/A    frame=  830 fps=8.0 q=24.8 size=N/A time=00:00:27.69 bitrate=N/A    frame=  835 fps=8.0 q=24.8 size=N/A time=00:00:27.86 bitrate=N/A    frame=  839 fps=8.0 q=24.8 size=N/A time=00:00:27.99 bitrate=N/A    frame=  844 fps=8.0 q=24.8 size=N/A time=00:00:28.16 bitrate=N/A    frame=  849 fps=8.0 q=24.8 size=N/A time=00:00:28.32 bitrate=N/A    frame=  854 fps=8.0 q=24.8 size=N/A time=00:00:28.49 bitrate=N/A    frame=  859 fps=8.0 q=24.8 size=N/A time=00:00:28.66 bitrate=N/A    frame=  864 fps=8.0 q=24.8 size=N/A time=00:00:28.82 bitrate=N/A    frame=  869 fps=8.0 q=24.8 size=N/A time=00:00:28.99 bitrate=N/A    frame=  873 fps=8.0 q=24.8 size=N/A time=00:00:29.12 bitrate=N/A    frame=  878 fps=8.0 q=24.8 size=N/A time=00:00:29.29 bitrate=N/A    frame=  883 fps=8.0 q=24.8 size=N/A time=00:00:29.46 bitrate=N/A    frame=  888 fps=8.0 q=24.8 size=N/A time=00:00:29.62 bitrate=N/A    frame=  893 fps=8.0 q=24.8 size=N/A time=00:00:29.79 bitrate=N/A    frame=  898 fps=8.0 q=24.8 size=N/A time=00:00:29.96 bitrate=N/A    frame=  902 fps=8.0 q=24.8 size=N/A time=00:00:30.09 bitrate=N/A    frame=  906 fps=8.0 q=24.8 size=N/A time=00:00:30.23 bitrate=N/A    frame=  911 fps=8.0 q=24.8 size=N/A time=00:00:30.39 bitrate=N/A    frame=  915 fps=8.0 q=24.8 size=N/A time=00:00:30.53 bitrate=N/A    frame=  920 fps=8.0 q=24.8 size=N/A time=00:00:30.69 bitrate=N/A    frame=  925 fps=8.0 q=24.8 size=N/A time=00:00:30.86 bitrate=N/A    frame=  930 fps=8.0 q=24.8 size=N/A time=00:00:31.03 bitrate=N/A    frame=  934 fps=8.0 q=24.8 size=N/A time=00:00:31.16 bitrate=N/A    frame=  939 fps=8.0 q=24.8 size=N/A time=00:00:31.33 bitrate=N/A    frame=  944 fps=8.0 q=24.8 size=N/A time=00:00:31.49 bitrate=N/A    frame=  949 fps=8.0 q=24.8 size=N/A time=00:00:31.66 bitrate=N/A    frame=  954 fps=8.0 q=24.8 size=N/A time=00:00:31.83 bitrate=N/A    frame=  959 fps=8.0 q=24.8 size=N/A time=00:00:31.99 bitrate=N/A    frame=  963 fps=8.0 q=24.8 size=N/A time=00:00:32.13 bitrate=N/A    frame=  968 fps=8.0 q=24.8 size=N/A time=00:00:32.29 bitrate=N/A    frame=  973 fps=8.0 q=24.8 size=N/A time=00:00:32.46 bitrate=N/A    frame=  978 fps=8.0 q=24.8 size=N/A time=00:00:32.63 bitrate=N/A    frame=  983 fps=8.0 q=24.8 size=N/A time=00:00:32.79 bitrate=N/A    frame=  988 fps=8.0 q=24.8 size=N/A time=00:00:32.96 bitrate=N/A    frame=  992 fps=8.0 q=24.8 size=N/A time=00:00:33.09 bitrate=N/A    frame=  997 fps=8.0 q=24.8 size=N/A time=00:00:33.26 bitrate=N/A    frame= 1002 fps=8.0 q=24.8 size=N/A time=00:00:33.43 bitrate=N/A    frame= 1007 fps=8.0 q=24.8 size=N/A time=00:00:33.60 bitrate=N/A    frame= 1012 fps=8.0 q=24.8 size=N/A time=00:00:33.76 bitrate=N/A    frame= 1017 fps=8.0 q=24.8 size=N/A time=00:00:33.93 bitrate=N/A    frame= 1021 fps=8.0 q=24.8 size=N/A time=00:00:34.06 bitrate=N/A    frame= 1024 fps=7.9 q=24.8 size=N/A time=00:00:34.16 bitrate=N/A    frame= 1027 fps=7.9 q=24.8 size=N/A time=00:00:34.26 bitrate=N/A    frame= 1031 fps=7.9 q=24.8 size=N/A time=00:00:34.40 bitrate=N/A    frame= 1035 fps=7.9 q=24.8 size=N/A time=00:00:34.53 bitrate=N/A    frame= 1038 fps=7.9 q=24.8 size=N/A time=00:00:34.63 bitrate=N/A    frame= 1042 fps=7.9 q=24.8 size=N/A time=00:00:34.76 bitrate=N/A    frame= 1046 fps=7.9 q=24.8 size=N/A time=00:00:34.90 bitrate=N/A    frame= 1050 fps=7.9 q=24.8 size=N/A time=00:00:35.03 bitrate=N/A    frame= 1053 fps=7.9 q=24.8 size=N/A time=00:00:35.13 bitrate=N/A    frame= 1057 fps=7.9 q=24.8 size=N/A time=00:00:35.26 bitrate=N/A    frame= 1061 fps=7.9 q=24.8 size=N/A time=00:00:35.40 bitrate=N/A    frame= 1065 fps=7.9 q=24.8 size=N/A time=00:00:35.53 bitrate=N/A    frame= 1069 fps=7.9 q=24.8 size=N/A time=00:00:35.66 bitrate=N/A    frame= 1073 fps=7.9 q=24.8 size=N/A time=00:00:35.80 bitrate=N/A    frame= 1077 fps=7.9 q=24.8 size=N/A time=00:00:35.93 bitrate=N/A    frame= 1081 fps=7.9 q=24.8 size=N/A time=00:00:36.06 bitrate=N/A    frame= 1085 fps=7.9 q=24.8 size=N/A time=00:00:36.20 bitrate=N/A    frame= 1090 fps=7.9 q=24.8 size=N/A time=00:00:36.36 bitrate=N/A    frame= 1094 fps=7.9 q=24.8 size=N/A time=00:00:36.50 bitrate=N/A    frame= 1098 fps=7.9 q=24.8 size=N/A time=00:00:36.63 bitrate=N/A    frame= 1102 fps=7.9 q=24.8 size=N/A time=00:00:36.77 bitrate=N/A    frame= 1107 fps=7.9 q=24.8 size=N/A time=00:00:36.93 bitrate=N/A    frame= 1111 fps=7.9 q=24.8 size=N/A time=00:00:37.07 bitrate=N/A    frame= 1115 fps=7.9 q=24.8 size=N/A time=00:00:37.20 bitrate=N/A    frame= 1119 fps=7.9 q=24.8 size=N/A time=00:00:37.33 bitrate=N/A    frame= 1123 fps=7.9 q=24.8 size=N/A time=00:00:37.47 bitrate=N/A    frame= 1128 fps=7.9 q=24.8 size=N/A time=00:00:37.63 bitrate=N/A    frame= 1132 fps=7.9 q=24.8 size=N/A time=00:00:37.77 bitrate=N/A    frame= 1137 fps=7.9 q=24.8 size=N/A time=00:00:37.93 bitrate=N/A    frame= 1141 fps=7.9 q=24.8 size=N/A time=00:00:38.07 bitrate=N/A    frame= 1145 fps=7.9 q=24.8 size=N/A time=00:00:38.20 bitrate=N/A    frame= 1149 fps=7.9 q=24.8 size=N/A time=00:00:38.33 bitrate=N/A    frame= 1153 fps=7.9 q=24.8 size=N/A time=00:00:38.47 bitrate=N/A    frame= 1157 fps=7.9 q=24.8 size=N/A time=00:00:38.60 bitrate=N/A    frame= 1162 fps=7.9 q=24.8 size=N/A time=00:00:38.77 bitrate=N/A    frame= 1167 fps=7.9 q=24.8 size=N/A time=00:00:38.93 bitrate=N/A    frame= 1171 fps=7.9 q=24.8 size=N/A time=00:00:39.07 bitrate=N/A    frame= 1175 fps=7.9 q=24.8 size=N/A time=00:00:39.20 bitrate=N/A    frame= 1179 fps=7.9 q=24.8 size=N/A time=00:00:39.33 bitrate=N/A    frame= 1184 fps=7.9 q=24.8 size=N/A time=00:00:39.50 bitrate=N/A    frame= 1189 fps=7.9 q=24.8 size=N/A time=00:00:39.67 bitrate=N/A    frame= 1194 fps=7.9 q=24.8 size=N/A time=00:00:39.83 bitrate=N/A    frame= 1198 fps=7.9 q=24.8 size=N/A time=00:00:39.97 bitrate=N/A    frame= 1198 fps=7.9 q=24.8 Lsize=N/A time=00:00:39.97 bitrate=N/A    
video:1100698kB audio:0kB subtitle:0kB other streams:0kB global headers:0kB muxing overhead: unknown
+ turkic load DJI_0048_regi_turas_friss_turas_belviz_kereknyom_homokmegy_homokmegy_20180331_napos_kalaszos_T1 /home/horvathandras/vatic/vatic/videos/DJI_0048_regi_turas_friss_turas_belviz_kereknyom_homokmegy_homokmegy_20180331_napos_kalaszos_T1 $'Pozit\303\255vROI' $'Negat\303\255vROI' $'T\303\272r\303\241s' '~Friss' '~1-2Hetes' '~Régebbi' '~Egyéb1' '~Egyéb2' '~Egyéb3' $'R\303\241g\303\241s' '~Friss' '~1-2Hetes' '~Régebbi' '~Egyéb1' '~Egyéb2' '~Egyéb3' $'T\303\266r\303\251s' '~Friss' '~1-2Hetes' '~Régebbi' '~Egyéb1' '~Egyéb2' '~Egyéb3' $'Tapos\303\241s' '~Friss' '~1-2Hetes' '~Régebbi' '~Egyéb1' '~Egyéb2' '~Egyéb3' $'Eg\303\251szs\303\251gesN\303\266v\303\251ny' $'Egy\303\251b1' $'Egy\303\251b2' $'Egy\303\251b3' $'Egy\303\251b4' $'Egy\303\251b5' Bizonytalan $'M\305\261vel\305\221\303\272t' $'Gktapos\303\241s' $'Vet\305\221hiba' $'Sz\303\251ld\303\266nt\303\251s' $'J\303\251gk\303\241r' $'Belv\303\255z' $'Asz\303\241ly' $'Er\303\263zi\303\263' $'Egyszik\305\261Gyom' $'K\303\251tszik\305\261Gyom' $'Egy\303\251bN\303\266vv\303\251delmiPR' --offline --title '$filenameNoDot Video' --length 1000 --description 'vatic annotation'
+ turkic publish --offline
+ mkdir /home/horvathandras/vatic/vatic/public/videothumbnails/DJI_0048_regi_turas_friss_turas_belviz_kereknyom_homokmegy_homokmegy_20180331_napos_kalaszos_T1
+ cp /home/horvathandras/vatic/vatic/videos/DJI_0048_regi_turas_friss_turas_belviz_kereknyom_homokmegy_homokmegy_20180331_napos_kalaszos_T1/0/0/31.jpg /home/horvathandras/vatic/vatic/public/videothumbnails/DJI_0048_regi_turas_friss_turas_belviz_kereknyom_homokmegy_homokmegy_20180331_napos_kalaszos_T1/thumb.jpg
